<svg xmlns="http://www.w3.org/2000/svg" width="340.562" height="46.13" viewBox="0 0 340.562 46.13"><path d="M0 .69h45v45H0z"/><path fill="#FFF" d="M22.125 29.16v-5.99h-5.99v-.25h5.99v-5.99h.25v5.99h5.99v.25h-5.99v5.99h-.25M9.907 6.98H6.13l4.158 11.032 1.875-5.05-2.256-5.98zm5.112 0l-2.557 6.78-.006-.017-1.865 5.025h3.76L18.798 6.98H15.02zM14.577 27.986l-1.865 5.074.53 1.41h-1.665l.833-2.21.005.013 1.847-5.022H10.52L7.8 34.47l-.973 2.578-.75 1.99h3.777l.75-1.99h3.61l.752 1.99h3.778M32.906 10.003c.797 0 1.52.327 2.04.853l2.447-2.45c-1.138-1.14-2.73-1.85-4.468-1.85-1.52 0-2.925.542-4.015 1.44l2.446 2.468c.448-.29.977-.46 1.55-.46zm0 5.737c-1.584 0-2.87-1.284-2.87-2.868 0-.813.343-1.543.887-2.065l-2.42-2.44c-.015.013-.03.025-.044.04h-.003c-1.14 1.14-1.852 2.73-1.85 4.47-.002 1.738.71 3.33 1.85 4.467l.002.002c1.137 1.14 2.728 1.85 4.466 1.85h.003c1.736 0 3.327-.71 4.464-1.852l-2.453-2.452c-.52.523-1.24.848-2.034.848zM32.8 35.082l-2.897-7.828H26.75v11.768H29.8v-3.916l1.59 3.924h2.822v-.002l-1.397-3.982-.014.036zm2.895-7.83l-2.583 6.983 1.41 4.02 1.28-3.15v3.915h3.045V27.253h-3.152z"/><path fill="none" d="M176.376 13.553h6.638l-3.477-8.587"/><path d="M190.012 22.337c-.545-.425-1.012-1.11-1.4-2.053l-8.24-19.8h-.52l-7.832 20.162c-.305.787-.723 1.374-1.258 1.762-.535.39-1.955.62-2.783.672h-.002l-.192.008h-.272c-.892 0-1.516-.23-1.84-.648-.326-.42-.488-1.383-.488-2.894V6.286c0-1.76.175-2.872.526-3.333.352-.46 1.057-.692 2.116-.692v-.974c-.22.01-.53.02-.928.032-1.5.063-2.532.094-3.1.094-.534 0-1.545-.025-3.034-.078l-.99-.047v.975h.44c.796 0 1.362.192 1.697.574s.503 1.036.503 1.958v6.966h-13.054V6.287c0-1.75.18-2.86.542-3.327.362-.466 1.072-.7 2.13-.7v-.974c-.198.01-.486.02-.864.032-1.542.063-2.605.094-3.193.094-.524 0-1.536-.025-3.035-.078l-.99-.047v.975h.455c.796 0 1.365.194 1.706.582.34.388.512 1.038.512 1.95v14.988c0 1.25-.187 2.108-.56 2.58-.372.472-1.045.707-2.02.707h-.094l.016.96c.818-.032 1.565-.056 2.242-.07.677-.018 1.266-.025 1.77-.025.502 0 1.092.008 1.77.024.676.015 1.437.038 2.287.07v-.96h-.314c-.91 0-1.532-.216-1.862-.645-.33-.43-.496-1.39-.496-2.88v-6.494h13.054v6.73c0 1.26-.184 2.122-.55 2.59s-1.033.698-1.998.698h-.094v.96c.828-.03 1.578-.055 2.25-.07.67-.017 1.262-.024 1.776-.024.493 0 1.072.008 1.738.024.59.014 1.406.038 2.186.037v.003c.1-.004.446-.004.567-.007.772-.02 1.87-.02 2.314-.032.514-.017.902-.024 1.164-.024.566 0 1.174.008 1.825.024.65.016 1.346.04 2.09.07l.017-.96c-.754-.072-1.266-.198-1.533-.377-.268-.177-.402-.47-.402-.88 0-.167.016-.347.047-.533.03-.19.08-.38.14-.567l1.937-5.726h7.737L186 20.742c.065.136.114.277.15.424.038.147.056.272.056.378 0 .48-.223.857-.668 1.124-.446.268-1.073.4-1.88.4v.96c.87-.03 1.7-.055 2.486-.07.785-.017 1.525-.024 2.217-.024.337 0 .82.008 1.448.024.63.016 1.41.04 2.344.07v-.96c-.88-.063-1.594-.307-2.14-.73zm-13.636-8.784l3.16-8.587 3.478 8.587h-6.638zM228.344 18.3c-.336 1.72-.917 2.875-1.745 3.467-.83.593-2.565.89-5.208.89-1.678 0-2.715-.16-3.113-.48-.4-.32-.598-1.172-.598-2.556v-7.014h2.8c1.603 0 2.642.163 3.113.488.47.324.713.934.723 1.824h.944c-.01-.125-.016-.313-.016-.565-.032-1.206-.048-2.044-.048-2.517 0-.377.01-1.085.03-2.124.012-.335.022-.597.033-.786h-.943c0 .053.006.122.016.205.012.085.016.148.016.19 0 .828-.304 1.4-.912 1.714-.608.313-1.83.47-3.665.47-.2 0-.53-.004-.99-.015-.462-.012-.83-.017-1.1-.017v-8.79h1.933c2.978 0 4.884.27 5.717.816.834.544 1.282 1.583 1.345 3.114h.865c0-.588-.026-1.403-.078-2.446-.053-1.042-.078-1.795-.078-2.257V1.3c-1.73.042-3.34.073-4.83.094-1.488.02-2.79.03-3.9.03-1.12 0-2.21-.01-3.264-.03-.936-.02-2.086-.064-2.998-.066h-.063c-.612.006-1.68.02-2.247.038-.588.02-1.158.03-1.715.03-.44 0-.95-.01-1.532-.025-.583-.017-1.23-.04-1.942-.07l-.016.974c.754.063 1.27.18 1.55.354.276.173.415.448.415.825 0 .167-.028.373-.086.613-.06.24-.146.52-.26.833l-6.182 15.664-6.575-15.98c-.084-.21-.148-.39-.196-.542-.046-.153-.07-.28-.07-.385 0-.46.202-.806.605-1.03.403-.226 1.03-.35 1.88-.37v-.96c-.786.032-1.534.056-2.242.07-.707.017-1.375.025-2.005.025-.534 0-1.158-.008-1.872-.024-.713-.016-1.504-.04-2.373-.07v.975c.91.073 1.63.323 2.154.747.523.424 1.027 1.213 1.51 2.367l8.02 19.17h.74l8.366-19.17c.59-1.363 1.12-2.218 1.597-2.564.474-.343 1.465-.536 2.33-.57l.266-.01h.268c.798 0 1.376.225 1.717.612.34.388.51 1.038.51 1.95v14.988c0 1.248-.186 2.107-.558 2.58-.372.47-1.047.706-2.022.706h-.095v.96c1.143-.042 2.305-.073 3.483-.096 1.18-.02 2.403-.03 3.673-.03.984 0 2.243.007 3.773.022 1.53.018 3.33.04 5.395.07.03-.618.128-1.56.29-2.822.163-1.263.26-2.226.29-2.886h-.834z"/><path fill="none" d="M245.73 7.67c0-1.707-.47-3.026-1.408-3.954-.938-.928-2.272-1.393-4.003-1.393-.253 0-.554.008-.905.023s-.73.04-1.14.07l-.016 9.69c.407.104.8.18 1.178.227.377.047.76.072 1.148.072 1.678 0 2.954-.404 3.83-1.21.876-.808 1.313-1.983 1.313-3.524z"/><path d="M268.81 3.682c-.025-.865-.04-1.665-.04-2.398-1.718.042-3.327.074-4.827.095-1.5.02-2.8.03-3.9.03-1.122 0-2.21-.01-3.264-.03-1.055-.022-2.095-.054-3.122-.096v.975h.455c.797 0 1.365.193 1.707.58.34.39.512 1.04.512 1.952v14.99c0 1.248-.117 2.17-.56 2.58-.933.862-2.382.856-2.382.856-1.28-.004-2.644-.164-3.358-.66-.718-.5-1.602-1.697-2.65-3.595l-3.444-6.086c1.637-.366 2.845-1.014 3.625-1.942.782-.927 1.172-2.18 1.172-3.75 0-1.867-.64-3.332-1.918-4.397-1.28-1.064-3.057-1.597-5.332-1.597-.46 0-1.27.038-2.422.11-1.154.074-2.076.11-2.768.11-.43 0-.94-.01-1.533-.03-.594-.02-1.23-.053-1.912-.095v.975h.457c.797 0 1.365.194 1.706.582.34.388.51 1.038.51 1.95V19.78c0 1.25-.185 2.108-.558 2.58-.372.472-1.045.707-2.02.707h-.096l.016.96c.817-.03 1.565-.055 2.24-.07.677-.017 1.267-.024 1.77-.024.503 0 1.093.008 1.77.024s1.438.04 2.288.07v-.96h-.314c-.912 0-1.533-.215-1.863-.644-.33-.43-.495-1.39-.495-2.88v-5.99l.675.046c1.145.072 1.788.146 1.936.22.252.114.645.627 1.18 1.54.083.146.152.263.205.346l2.97 4.907c.862 1.426 1.7 2.253 2.52 2.76.815.51 1.895.763 3.24.763.27 0 1.06-.008 1.354-.023.207-.01.704-.04 1.106-.07.812-.03 1.804-.073 2.47-.088.674-.017 1.266-.024 1.768-.024.504 0 1.094.01 1.77.025.676.016 1.438.04 2.29.07v-.96h-.316c-.91 0-1.534-.213-1.862-.645-.332-.43-.496-1.39-.496-2.878V12.59h2.973c1.594 0 2.626.173 3.098.52.47.346.73 1.022.77 2.03h.897c0-.116-.005-.284-.016-.505-.03-1.268-.047-2.143-.047-2.626 0-.472.016-1.312.047-2.517.01-.25.016-.446.016-.582h-.944v.363c0 .85-.295 1.432-.888 1.746-.592.313-1.837.47-3.735.47-.21 0-.553-.004-1.03-.015-.477-.01-.856-.016-1.14-.016V2.666h1.934c2.98 0 4.883.273 5.717.818s1.283 1.583 1.346 3.114h.865c-.06-1.08-.098-2.053-.125-2.918zm-28.223 8.724c-.388 0-.77-.024-1.148-.072-.378-.047-.772-.123-1.18-.228l.016-9.688c.41-.03.788-.056 1.14-.07s.652-.024.904-.024c1.73 0 3.064.464 4.003 1.393.938.927 1.407 2.246 1.407 3.955 0 1.542-.438 2.716-1.312 3.523-.877.807-2.153 1.21-3.83 1.21zM282.833 24.547c-3.43 0-6.282-1.127-8.562-3.382-2.28-2.254-3.42-5.06-3.42-8.414s1.105-6.18 3.317-8.477c2.212-2.295 4.938-3.444 8.18-3.444 3.49 0 6.382 1.124 8.672 3.373 2.29 2.25 3.437 5.088 3.437 8.517 0 3.387-1.104 6.204-3.31 8.452-2.21 2.25-4.98 3.375-8.314 3.375zm-8.823-12.47c0 3.26.876 5.954 2.626 8.082 1.752 2.128 3.928 3.19 6.527 3.19 2.35 0 4.304-.913 5.867-2.743 1.562-1.83 2.344-4.144 2.344-6.943 0-3.387-.864-6.173-2.588-8.36-1.725-2.186-3.924-3.28-6.598-3.28-2.527 0-4.52.892-5.984 2.674-1.463 1.783-2.194 4.242-2.194 7.378z"/><g><path fill="none" d="M309.472 7.67c0-1.707-.47-3.026-1.407-3.954-.938-.928-2.272-1.393-4.004-1.393-.25 0-.552.008-.902.023-.352.016-.73.04-1.14.07l-.017 9.69c.41.104.804.18 1.18.227.38.047.76.072 1.148.072 1.678 0 2.954-.404 3.83-1.21.876-.808 1.314-1.983 1.314-3.524zM326.895 2.485c-.556 0-1.162.02-1.817.055-.655.037-1.407.092-2.257.166l-.01 12.67v3.975c.02 1.396.293 2.33.83 2.796.555.482 1.64.724 3.255.724 3.376 0 6.02-.836 7.927-2.51 1.907-1.672 2.86-3.98 2.86-6.927 0-3.292-.98-5.94-2.948-7.943-1.966-2.003-4.58-3.005-7.84-3.005z"/><path d="M339.547 7.652c-.676-1.484-1.607-2.713-2.79-3.688-1.165-.944-2.49-1.637-3.98-2.077-1.488-.44-3.277-.66-5.363-.66-.692 0-1.704.032-3.036.094-.833.04-1.53.067-2.093.082-.598-.005-1.187-.012-1.765-.023-1.053-.022-2.095-.054-3.12-.096v.006h-.005v.975h.456c.798 0 1.366.194 1.708.582.34.388.51 1.038.51 1.95V19.52c0 .103.002.2.004.3-.002 1.23-.12 2.14-.558 2.542-.934.863-2.382.857-2.382.857-1.28-.005-2.644-.165-3.358-.662-.718-.498-1.603-1.696-2.65-3.594l-3.444-6.086c1.636-.366 2.844-1.014 3.625-1.942.782-.927 1.17-2.18 1.17-3.75 0-1.867-.638-3.332-1.917-4.397s-3.056-1.598-5.33-1.598c-.463 0-1.27.037-2.423.11-1.154.073-2.076.11-2.768.11-.43 0-.942-.01-1.534-.03-.593-.022-1.23-.054-1.91-.096v.975h.456c.794 0 1.364.195 1.704.583.34.388.512 1.038.512 1.95v14.988c0 1.25-.187 2.11-.56 2.58-.372.473-1.044.708-2.02.708h-.095l.017.96c.817-.03 1.565-.055 2.24-.07.678-.017 1.267-.024 1.77-.024s1.094.008 1.77.024c.678.016 1.44.04 2.29.07v-.96h-.315c-.913 0-1.534-.215-1.863-.644-.332-.43-.497-1.39-.497-2.88v-5.99l.676.046c1.142.073 1.787.147 1.934.22.252.115.646.628 1.18 1.54.084.147.15.264.205.347l2.97 4.907c.86 1.426 1.7 2.253 2.52 2.76.816.51 1.896.763 3.24.763.27 0 1.06-.008 1.354-.023.207-.01.704-.04 1.106-.07.572-.02 1.23-.05 1.805-.068l.494-.014c.69-.017 1.336-.024 1.934-.024.587 0 1.523.027 2.808.08 1.284.052 2.272.077 2.965.077 4.234 0 7.522-1.032 9.86-3.097 2.34-2.066 3.508-4.96 3.508-8.683-.003-1.625-.34-3.18-1.018-4.663zm-35.22 4.754c-.387 0-.77-.024-1.146-.072-.376-.047-.77-.123-1.18-.228l.017-9.688c.41-.03.79-.056 1.14-.07.352-.017.653-.024.904-.024 1.732 0 3.066.464 4.005 1.393.938.927 1.407 2.246 1.407 3.955 0 1.542-.438 2.716-1.312 3.523-.878.807-2.154 1.21-3.832 1.21zm30.494 7.954c-1.907 1.673-4.55 2.51-7.926 2.51-1.614 0-2.7-.242-3.256-.725-.536-.466-.81-1.4-.83-2.795v-3.976l.012-12.67c.85-.072 1.602-.127 2.257-.165.655-.037 1.262-.056 1.817-.056 3.26 0 5.873 1 7.84 3.004 1.966 2.003 2.948 4.65 2.948 7.943 0 2.948-.953 5.257-2.86 6.93z"/></g><g><path d="M207.99 35.6h-.29c-.49-.983-1.147-1.716-1.976-2.195-.83-.48-1.848-.72-3.058-.72-1.588 0-2.888.554-3.904 1.66-1.016 1.107-1.523 2.544-1.523 4.313 0 1.957.51 3.55 1.527 4.773 1.02 1.228 2.34 1.84 3.965 1.84 1.08 0 2.048-.242 2.907-.73.858-.484 1.673-1.258 2.444-2.317v1.524c-.627.72-1.425 1.286-2.395 1.697-.97.41-1.995.616-3.08.616-2.146 0-3.89-.643-5.23-1.93-1.343-1.284-2.015-2.946-2.015-4.984 0-2.076.692-3.807 2.075-5.193 1.382-1.387 3.118-2.08 5.206-2.08.99 0 2.28.26 3.867.772.664.207 1.153.348 1.467.423-.012.37-.02.646-.023.823-.003.18-.005.352-.005.515 0 .105.007.344.02.715.007.202.013.362.02.48zM217.483 46.062c-2.05 0-3.758-.674-5.123-2.022-1.363-1.348-2.045-3.026-2.045-5.033s.66-3.697 1.984-5.07c1.322-1.374 2.953-2.06 4.89-2.06 2.09 0 3.82.67 5.19 2.017s2.055 3.043 2.055 5.095c0 2.024-.66 3.71-1.98 5.056-1.32 1.344-2.977 2.016-4.972 2.016zm-5.277-7.46c0 1.95.523 3.562 1.57 4.835 1.047 1.273 2.35 1.91 3.904 1.91 1.404 0 2.574-.548 3.51-1.642.934-1.095 1.4-2.48 1.4-4.153 0-2.025-.516-3.692-1.548-5-1.03-1.308-2.347-1.962-3.946-1.962-1.51 0-2.704.533-3.578 1.6-.874 1.065-1.312 2.537-1.312 4.412zM226.556 32.15l.47.018c.94.038 1.587.057 1.94.057.33 0 .96-.017 1.88-.047.252-.013.45-.022.594-.028v.583c-.57 0-.98.117-1.23.353-.246.235-.37.622-.37 1.16v8.506c0 .865.195 1.447.588 1.745s1.215.447 2.47.447c1.224 0 2.062-.184 2.517-.55s.74-1.06.86-2.075h.536v.065c-.024 1.474-.053 2.596-.083 3.367-1.197-.006-2.56-.02-4.083-.042s-2.452-.032-2.784-.032c-.408 0-1.2.016-2.37.047l-.933.027v-.573h.066c.576 0 .975-.142 1.19-.42.216-.28.325-.796.325-1.547v-8.967c0-.552-.1-.94-.297-1.17-.196-.23-.534-.344-1.01-.344h-.274v-.583zM238.36 32.15l.472.018c.94.038 1.587.057 1.938.057.332 0 .96-.017 1.882-.047.25-.013.45-.022.593-.028v.583c-.57 0-.98.117-1.228.353s-.37.622-.37 1.16v8.506c0 .865.194 1.447.587 1.745.392.298 1.215.447 2.47.447 1.223 0 2.06-.184 2.517-.55.454-.368.74-1.06.86-2.075h.537v.065c-.025 1.474-.054 2.596-.084 3.367-1.2-.006-2.56-.02-4.084-.042-1.524-.02-2.452-.032-2.784-.032-.408 0-1.2.016-2.37.047l-.934.027v-.573h.065c.578 0 .975-.142 1.19-.42.218-.28.325-.796.325-1.547v-8.967c0-.552-.1-.94-.297-1.17-.197-.23-.534-.344-1.01-.344h-.274v-.583zM250.073 45.75v-.572h.057c.584 0 .986-.142 1.21-.425.222-.28.333-.796.333-1.54v-8.968c0-.545-.102-.934-.306-1.166s-.544-.35-1.02-.35h-.274v-.582c.615.024 1.237.044 1.867.057.63.012 1.28.02 1.953.02.664 0 1.44-.008 2.332-.02.89-.013 1.854-.032 2.89-.057v.366c0 .275.015.727.046 1.35.032.625.048 1.112.048 1.463h-.518c-.037-.915-.305-1.536-.804-1.86-.5-.328-1.64-.49-3.42-.49h-1.157v5.258c.162 0 .382.003.657.01.275.006.475.01.594.01 1.098 0 1.83-.095 2.192-.283.363-.188.546-.53.546-1.025 0-.024-.004-.062-.01-.112s-.01-.09-.01-.122h.564c-.006.112-.012.27-.02.47-.01.622-.018 1.044-.018 1.27 0 .283.01.785.028 1.507 0 .15.003.263.01.338h-.565c-.006-.533-.15-.897-.433-1.092-.282-.194-.902-.29-1.863-.29h-1.673v4.194c0 .828.12 1.338.357 1.528.238.192.86.288 1.863.288 1.58 0 2.618-.178 3.113-.532.496-.354.844-1.046 1.045-2.074h.498c-.02.396-.076.97-.174 1.727-.1.755-.157 1.318-.175 1.688-1.235-.02-2.312-.032-3.227-.042-.917-.01-1.668-.014-2.26-.014-.758 0-1.49.005-2.195.018-.7.01-1.395.03-2.08.053zM275.102 32.967c-.006.25-.01.494-.014.728-.003.236-.005.485-.005.75 0 .187.002.366.005.535.003.17.008.342.014.518h-.518c-.345-.98-.89-1.698-1.632-2.16-.744-.46-1.736-.69-2.977-.69-1.72 0-3.105.54-4.158 1.623-1.055 1.083-1.582 2.508-1.582 4.275 0 1.895.594 3.478 1.778 4.747 1.187 1.27 2.666 1.905 4.44 1.905.533 0 1.047-.062 1.543-.188.495-.126 1.003-.32 1.523-.584v-2.832c0-.57-.09-.945-.27-1.125-.178-.18-.518-.27-1.02-.27h-.094v-.554c.25.006.62.017 1.11.033.49.016.843.022 1.063.022.217 0 .58-.007 1.085-.023s.88-.028 1.123-.034v.555h-.113c-.475 0-.8.08-.973.236-.173.157-.26.452-.26.886v3.603c-.94.375-1.855.66-2.745.85-.892.192-1.74.288-2.55.288-2.196 0-3.987-.683-5.376-2.05-1.39-1.368-2.084-3.124-2.084-5.27 0-1.994.694-3.637 2.085-4.93 1.39-1.29 3.176-1.937 5.357-1.937 1.155 0 2.72.304 4.694.913.244.073.426.133.552.177zM278.874 45.75v-.572h.057c.584 0 .986-.142 1.21-.425.222-.28.333-.796.333-1.54v-8.968c0-.545-.102-.934-.306-1.166-.203-.233-.544-.35-1.02-.35h-.273v-.582c.615.024 1.236.044 1.866.057.632.012 1.282.02 1.953.02.665 0 1.442-.008 2.332-.02.89-.013 1.854-.032 2.89-.057v.366c0 .275.015.727.047 1.35.03.625.046 1.112.046 1.463h-.517c-.037-.915-.305-1.536-.804-1.86-.5-.328-1.64-.49-3.42-.49h-1.156v5.258c.163 0 .382.003.658.01.276.006.474.01.593.01 1.1 0 1.83-.095 2.192-.283.363-.188.546-.53.546-1.025 0-.024-.003-.062-.01-.112-.006-.05-.01-.09-.01-.122h.565c-.007.112-.013.27-.02.47-.013.622-.018 1.044-.018 1.27 0 .283.01.785.027 1.507 0 .15.003.263.01.338h-.564c-.007-.533-.15-.897-.433-1.092-.283-.194-.903-.29-1.862-.29h-1.675v4.194c0 .828.118 1.338.357 1.528.24.192.86.288 1.862.288 1.58 0 2.62-.178 3.113-.532.496-.354.844-1.046 1.045-2.074h.5c-.02.396-.077.97-.176 1.727-.098.755-.155 1.318-.176 1.688-1.234-.02-2.31-.032-3.226-.042s-1.67-.014-2.258-.014c-.76 0-1.49.005-2.196.018-.702.01-1.396.03-2.08.053z"/></g><g><path fill="none" d="M116.72 15.177V46.13h-.897c.01-.123.027-.246.027-.37l.002-18.382v-.494h-6.105v6.965h-5.85v-6.973h-6.036V45.683c0 .15.012.3.018.447h-4.71c-.027-.107-.043-.22-.082-.322-2.318-6.206-4.64-12.41-6.954-18.617-.09-.242-.205-.342-.48-.34-2.042.013-4.084.014-6.127-.002-.323-.003-.47.09-.59.4-2.345 6.166-4.706 12.326-7.06 18.49-.047.123-.06.26-.09.392-.025-.012-.07-.023-.07-.037-.007-.1-.004-.2-.004-.3V.074H107c-.43.05-.863.086-1.292.15-2.557.38-4.662 1.575-6.18 3.663-2.006 2.76-2.596 5.87-1.854 9.18.776 3.46 2.758 5.956 6.216 7.06 2.61.835 5.23.712 7.786-.282 2.044-.795 3.63-2.135 4.674-4.085.108-.202.246-.388.37-.583zm-31.853 4.85h6.064V.84h-6.07v6.977H79V.845h-6.005v19.172h6.033v-7.383c1.89 0 3.732.003 5.574-.003.264 0 .267.148.266.338-.003 1.308 0 2.616 0 3.925v3.135z"/><path fill-rule="evenodd" clip-rule="evenodd" d="M97.88 46.13c-.007-.148-.018-.298-.018-.447V27.3v-.423h6.037v6.972h5.848v-6.966h6.105v.494c0 6.128 0 12.255-.002 18.383 0 .124-.017.247-.026.37h-6.056v-7.438h-5.862v.394c0 2.214 0 4.428-.004 6.642 0 .135-.027.27-.04.403h-5.983zM71.786 46.13c.03-.13.043-.27.09-.393 2.354-6.163 4.715-12.323 7.06-18.49.12-.31.267-.402.59-.4 2.042.017 4.085.016 6.127.003.275-.002.39.098.48.34 2.314 6.208 4.636 12.412 6.954 18.618.04.104.055.215.082.322h-6.43c-.05-.112-.11-.222-.147-.338-.226-.695-.454-1.39-.666-2.09-.06-.198-.137-.274-.358-.273-2.053.01-4.105.012-6.156 0-.266-.002-.363.09-.435.33-.243.793-.508 1.58-.764 2.37h-6.43zm12.804-7l-2.015-6.67-.117.007-2.064 6.662h4.196zM116.72 15.177c-.125.194-.263.38-.37.583-1.046 1.95-2.63 3.29-4.675 4.085-2.557.994-5.175 1.117-7.786.283-3.46-1.105-5.44-3.6-6.217-7.06-.742-3.312-.152-6.42 1.854-9.18 1.518-2.09 3.623-3.283 6.18-3.664.43-.064.862-.1 1.293-.15h.748c.108.02.217.052.327.058 1.707.085 3.31.534 4.795 1.38 1.636.932 2.925 2.207 3.794 3.945l-5.052 2.51c-.1-.21-.178-.377-.258-.543-.366-.76-.818-1.458-1.52-1.952-2.144-1.51-5.014-.503-5.907 2.048-.37 1.058-.398 2.146-.366 3.243.03.966.225 1.9.615 2.787 1.304 2.96 5.128 2.756 6.486.76.354-.517.64-1.08.967-1.644.092.042.226.103.358.166l4.733 2.27c.002.025.002.05.002.075z"/><path clip-rule="evenodd" fill="none" d="M116.72 15.103c-1.578-.758-3.156-1.514-4.733-2.27-.132-.064-.266-.125-.358-.167-.33.563-.615 1.127-.967 1.645-1.358 1.996-5.182 2.2-6.486-.76-.39-.888-.585-1.82-.614-2.787-.032-1.097-.004-2.185.366-3.243.892-2.552 3.762-3.557 5.906-2.048.702.494 1.154 1.19 1.52 1.952l.258.544 5.052-2.51c-.87-1.74-2.158-3.015-3.794-3.947-1.484-.845-3.088-1.293-4.795-1.378-.11-.005-.218-.037-.327-.057h8.972c-.002 5.01-.002 10.018-.002 15.028zM103.86 46.13c.014-.134.04-.27.04-.403.004-2.214.004-4.428.005-6.642v-.394h5.862v7.44h-5.907zM78.216 46.13c.256-.79.52-1.577.763-2.37.07-.24.168-.332.434-.33 2.05.012 4.103.01 6.155 0 .22-.002.298.074.357.27.21.7.44 1.397.666 2.092.038.116.097.226.146.338h-8.524z"/><path fill-rule="evenodd" clip-rule="evenodd" d="M84.867 20.028v-3.136-3.925c0-.19 0-.338-.265-.337-1.842.007-3.685.003-5.574.003v7.383h-6.033V.844H79v6.972h5.86V.838h6.07v19.19h-6.063z"/><path clip-rule="evenodd" fill="none" d="M84.59 39.13h-4.196l2.064-6.663.117-.008 2.015 6.67z"/></g></svg>